<?xml version="1.0" standalone="no"?>
<svg version="1.0"
  xmlns="http://www.w3.org/2000/svg" width="512.000000pt" height="512.000000pt" viewBox="0 0 512.000000 512.000000" preserveAspectRatio="xMidYMid meet">
  <metadata>
Created by potrace 1.11, written by Peter Selinger 2001-2013
  </metadata>
  <g transform="translate(0.000000,512.000000) scale(0.100000,-0.100000)" fill="#000000" stroke="none">
    <path d="M311 4549 c-80 -24 -162 -95 -203 -178 l-23 -46 -3 -1427 -2 -1427 22 -59 c39 -102 109 -168 213 -199 30 -9 248 -13 884 -13 465 0 846 -1 847 -3 1 -1 -22 -72 -50 -157 l-52 -155 -145 -3 c-193 -4 -193 -4 -197 -141 l-4 -101 -374 0 c-359 0 -375 -1 -394 -20 -41 -41 -33 -112 15 -130 17 -6 664 -10 1803 -10 1731 0 1778 1 1802 19 19 15 25 29 25 60 0 79 23 76 -494 79 l-459 3 -4 99 c-4 137 0 134 -190 140 l-152 5 -52 155 c-28 85 -51 156 -50 157 2 2 383 3 848 3 822 0 847 1 905 21 89 30 163 106 192 197 l22 67 -3 1420 c-2 1035 -6 1425 -14 1440 -7 11 -18 33 -25 49 -21 45 -89 109 -144 136 l-50 25 -2230 2 c-1414 1 -2242 -2 -2264 -8z"/>
  </g>
</svg>
